<svg width="500" height="500" viewBox="0 0 500 500" fill="none" xmlns="http://www.w3.org/2000/svg">
<g opacity="0.6">
<path d="M390 261.391C389.993 257.096 390.163 253.07 390.379 247.985C390.379 247.982 390.379 247.979 390.379 247.977C390.409 247.25 390.442 246.501 390.474 245.728C390.733 239.497 391.038 231.402 391.212 219.196C391.405 205.709 392.104 195 392.775 188.462C392.9 187.242 392.969 185.98 393.031 182.796C393.072 180.708 393.109 177.885 393.163 173.811C393.192 171.644 393.225 169.122 393.266 166.17C393.401 156.397 393.359 141.081 393.319 126.969C393.295 118.403 393.272 110.279 393.291 104.108C393.298 101.997 393.31 99.9038 393.326 97.8138C393.29 96.5505 394.32 94.1534 395.164 93.2136C399.921 88.2906 404.683 83.4266 409.758 78.2449C415.824 72.0505 422.337 65.4014 429.814 57.6533C435.551 51.7083 441.452 46.2428 447.485 40.7238C448.253 40.0214 449.024 39.3164 449.797 38.6109C450.431 38.0312 451.068 37.4499 451.706 36.8663C454.819 33.4781 459.466 35.3998 459.546 40C459.101 46.3798 458.668 52.9243 458.407 59.9334C457.878 74.1169 458.096 85.4353 458.338 97.9672C458.433 102.868 458.531 107.956 458.59 113.474C458.682 122.2 458.664 134.744 458.637 147.34C458.635 148.413 458.633 149.488 458.631 150.559C458.631 150.565 458.631 150.57 458.631 150.576C458.607 162.106 458.582 173.422 458.636 181.724C458.721 194.917 458.923 199.881 459.091 204.021C459.155 205.577 459.214 207.018 459.26 208.736C459.425 214.922 459.395 224.26 459.364 233.726C459.364 233.762 459.364 233.798 459.364 233.834C459.359 235.405 458.794 236.673 458.103 236.666C457.411 236.658 456.855 235.378 456.86 233.807C456.876 228.793 456.892 223.9 456.881 219.52C456.287 219.293 455.837 218.113 455.842 216.699C455.853 213.16 455.406 202.319 454.675 185.352C454.567 186.515 454.461 187.488 454.361 188.341C454.244 189.342 454.142 190.109 454.056 190.769C453.875 192.143 453.756 193.058 453.669 194.681C453.569 198.441 453.549 204.351 453.529 210.57C453.523 212.14 452.96 213.409 452.269 213.402C451.578 213.394 451.021 212.114 451.026 210.543C451.026 210.512 451.026 210.482 451.026 210.451C451.046 204.292 451.067 198.192 451.172 194.264C451.199 193.265 451.231 192.404 451.26 191.758C451.284 191.241 451.315 190.596 451.356 190.238C451.361 190.19 451.372 190.099 451.389 189.991C451.389 189.989 451.389 189.988 451.39 189.986C451.399 189.925 451.446 189.616 451.547 189.287C451.568 189.22 451.614 189.075 451.688 188.907C451.693 188.864 451.699 188.821 451.705 188.777C451.784 188.173 451.864 187.556 451.943 186.889C452.249 184.283 452.634 180.155 453.043 171.558C453.418 163.652 453.587 150.286 453.59 133.608C453.538 134.735 453.488 135.864 453.439 136.993C453.318 139.832 453.208 142.685 453.102 145.539C453.062 146.632 453.023 147.71 452.984 148.809C452.921 150.578 452.86 152.352 452.8 154.125C452.759 155.323 452.719 156.524 452.679 157.723C452.679 157.726 452.679 157.729 452.679 157.731C452.623 159.396 452.567 161.065 452.509 162.747C452.488 163.335 452.467 163.917 452.447 164.494C452.367 166.793 452.289 169.051 452.138 171.65C452.113 171.966 452.081 172.31 452.054 172.566C452.025 172.842 451.997 173.107 451.967 173.357C451.941 173.578 451.915 173.789 451.89 173.991C451.887 174.018 451.884 174.046 451.881 174.073C451.853 174.299 451.828 174.515 451.804 174.723C451.78 174.93 451.757 175.13 451.736 175.327C451.736 175.329 451.736 175.331 451.736 175.333C451.716 175.538 451.7 175.694 451.683 175.912C451.661 176.186 451.644 176.421 451.627 176.706C451.61 176.982 451.595 177.269 451.583 177.56C451.57 177.85 451.559 178.146 451.548 178.446C451.538 178.746 451.529 179.051 451.52 179.359C451.512 179.666 451.505 179.978 451.497 180.291C451.49 180.604 451.482 180.921 451.475 181.239C451.459 181.972 451.32 182.675 451.085 183.19C450.849 183.706 450.538 183.993 450.215 183.99C449.893 183.986 449.583 183.692 449.351 183.171C449.119 182.65 448.984 181.945 448.973 181.212C448.97 181.013 448.966 180.812 448.963 180.611C448.961 180.491 448.96 180.371 448.958 180.25C448.953 179.927 448.948 179.601 448.945 179.272C448.941 178.944 448.939 178.613 448.937 178.278C448.936 177.942 448.935 177.602 448.937 177.256C448.939 176.912 448.943 176.56 448.951 176.202C448.958 175.853 448.97 175.455 448.985 175.1C448.996 174.839 449.014 174.519 449.03 174.251C449.047 173.972 449.066 173.698 449.086 173.433C449.106 173.168 449.127 172.911 449.147 172.666C449.149 172.64 449.151 172.614 449.153 172.588C449.171 172.371 449.188 172.162 449.203 171.965C449.22 171.744 449.235 171.535 449.247 171.336C449.261 171.117 449.267 170.984 449.273 170.821C449.313 168.665 449.305 166 449.297 163.459C449.296 163.14 449.296 162.823 449.295 162.508C449.289 160.839 449.282 159.174 449.274 157.509C449.269 156.3 449.263 155.088 449.258 153.876C449.251 152.091 449.246 150.302 449.241 148.514C449.239 147.403 449.237 146.313 449.236 145.205C449.234 142.313 449.237 139.411 449.252 136.505C449.267 133.603 449.293 130.683 449.338 127.761C449.382 124.851 449.448 121.826 449.549 118.906C449.624 116.76 449.755 114.559 449.891 112.523C449.964 111.429 450.038 110.357 450.112 109.301C450.112 109.298 450.112 109.294 450.113 109.29C450.178 108.364 450.242 107.449 450.303 106.54C450.435 104.592 450.552 102.679 450.651 100.766C450.75 98.856 450.831 96.9542 450.893 95.0382C450.954 93.1366 450.999 91.203 451.026 89.2885C451.054 87.3644 451.065 85.4753 451.064 83.4901C451.061 80.88 451.039 78.2881 451.013 75.6271C450.986 72.9856 450.952 70.3228 450.917 67.6529C450.905 66.7197 450.894 65.7847 450.882 64.8485C450.882 64.8449 450.882 64.8413 450.882 64.8377C450.859 63.106 450.837 61.3701 450.815 59.6327C450.781 56.9504 450.749 54.2608 450.723 51.561C450.697 48.8618 450.677 46.1459 450.67 43.4161C450.667 42.2885 450.666 41.1484 450.668 40L458.138 42.9856C457.01 44.1655 455.866 45.3525 454.709 46.534C452.951 48.3304 451.172 50.1331 449.432 51.8952C448.972 52.3606 448.512 52.8259 448.053 53.2913C445.873 55.4999 443.77 57.6448 441.716 59.7911C439.663 61.9352 437.638 64.102 435.614 66.3084C433.596 68.5079 431.572 70.7533 429.543 73.0278C427.506 75.3122 425.506 77.5784 423.472 79.8965C421.454 82.1972 419.433 84.5144 417.391 86.8641C416.256 88.1701 415.04 89.5518 413.887 90.8526C412.722 92.166 411.56 93.4664 410.41 94.748C409.944 95.2681 409.479 95.7851 409.017 96.2988C408.344 97.0479 407.677 97.7901 407.022 98.5219C406.037 99.6217 405.076 100.7 404.145 101.757L405.721 97.8138C405.728 97.9869 405.735 98.1596 405.742 98.3316C405.804 99.9015 405.877 101.425 405.966 102.897C406.059 104.421 406.153 105.676 406.287 107.178C406.547 110.836 406.626 113.102 406.716 115.621C406.733 116.117 406.752 116.624 406.772 117.152C406.872 120.172 406.947 123.189 407.004 126.167C407.061 129.173 407.099 132.132 407.121 135.13C407.143 138.098 407.148 141.088 407.139 144.066C407.13 147.039 407.106 150.007 407.067 152.983C407.028 155.957 406.973 158.992 406.906 161.905C406.868 163.589 406.816 165.378 406.763 167.04C406.725 168.239 406.685 169.42 406.646 170.579C406.63 171.052 406.614 171.522 406.599 171.988C406.545 173.593 406.495 175.154 406.457 176.662C406.419 178.169 406.392 179.629 406.383 181.056C406.373 182.487 406.38 183.886 406.404 185.286C406.431 186.737 406.466 187.942 406.53 189.483C406.573 190.487 406.616 191.47 406.658 192.45C406.723 193.918 406.788 195.375 406.856 196.842C406.924 198.308 406.994 199.755 407.066 201.21C407.089 201.678 407.114 202.172 407.138 202.641C407.213 204.09 407.289 205.523 407.37 206.954C407.451 208.383 407.535 209.799 407.625 211.208C407.715 212.624 407.809 214.016 407.911 215.435C408.084 217.848 408.165 220.157 408.219 222.179C408.272 224.226 408.301 226.138 408.33 227.999C408.335 228.348 408.34 228.696 408.345 229.045C408.368 230.546 408.389 232.023 408.414 233.478C408.445 235.271 408.482 237.031 408.526 238.797C408.57 240.547 408.621 242.315 408.681 244.056C408.742 245.813 408.808 247.494 408.889 249.304C408.968 251.095 409.071 252.914 409.184 254.908C409.296 256.883 409.411 258.956 409.511 261.056C409.612 263.153 409.699 265.283 409.768 267.399C409.836 269.518 409.889 271.645 409.925 273.742C409.962 275.85 409.983 277.945 409.993 280.03C410.003 282.111 410.002 284.259 409.99 286.27C409.97 289.527 409.943 292.769 409.913 296.017C409.883 299.246 409.849 302.486 409.813 305.72C409.777 308.947 409.74 312.178 409.7 315.403C409.661 318.631 409.621 321.857 409.581 325.079C409.572 325.792 409.563 326.504 409.554 327.217C409.522 329.726 409.491 332.235 409.46 334.733C409.46 334.75 409.459 334.768 409.459 334.785C409.42 338 409.381 341.158 409.349 344.347C409.337 345.517 409.326 346.642 409.317 347.785C409.308 348.929 409.301 350.052 409.295 351.186C409.29 352.32 409.287 353.448 409.287 354.559C409.287 355.682 409.29 356.776 409.298 357.881C409.305 358.893 409.317 359.899 409.331 360.997C409.332 361.097 409.333 361.197 409.334 361.298C409.349 362.499 409.358 363.866 409.351 365.137C409.332 368.502 409.322 371.782 409.323 375.122C409.323 375.748 409.324 376.374 409.325 377L400 367.675C400.106 367.675 400.211 367.675 400.317 367.675L393.542 370.592C395.244 368.787 396.908 366.941 398.542 365.05C399.36 364.104 400.17 363.146 400.971 362.178C402.219 360.672 403.446 359.144 404.655 357.591C406.644 355.038 408.577 352.432 410.465 349.766C412.345 347.113 414.181 344.399 415.953 341.661C417.723 338.924 419.452 336.123 421.099 333.326C422.936 330.205 424.682 327.057 426.351 323.843C428.016 320.637 429.598 317.378 431.084 314.092C432.575 310.792 433.974 307.458 435.282 304.086C436.591 300.71 437.808 297.302 438.934 293.849C439.606 291.791 440.249 289.708 440.855 287.625C441.085 286.499 441.296 285.411 441.49 284.371C442.901 276.664 443.621 271.054 444.412 263.658C444.475 262.947 444.504 262.366 444.537 261.659C444.543 261.525 444.55 261.382 444.557 261.237C444.597 260.316 444.647 259.26 444.751 257.791C444.955 254.864 445.37 250.402 446.156 244.605C446.354 243.14 447.037 242.212 447.706 242.547C448.174 242.783 448.506 243.585 448.591 244.554C448.731 242.77 448.851 240.999 448.948 239.22C448.98 238.644 449.089 238.095 449.262 237.654C449.301 237.555 449.344 237.46 449.39 237.372C449.604 236.962 449.871 236.717 450.149 236.688C450.214 233.934 452.243 231.74 454.997 231.818C455.001 231.854 455.001 231.89 454.997 231.926C452.305 231.851 450.321 233.995 450.258 236.688C450.263 236.688 450.269 236.689 450.274 236.689C450.596 236.729 450.9 237.058 451.12 237.591C451.129 237.611 451.137 237.633 451.145 237.654C451.349 238.185 451.456 238.866 451.445 239.559C451.413 241.472 451.355 243.375 451.274 245.282C451.194 247.184 451.092 249.084 450.966 250.982C450.841 252.874 450.692 254.783 450.52 256.678C450.348 258.569 450.15 260.47 449.929 262.36C449.705 264.273 449.463 266.135 449.19 268.033C449.026 269.17 448.851 270.318 448.671 271.441C448.604 271.859 448.537 272.27 448.469 272.68C448.413 273.015 448.356 273.351 448.296 273.697C447.673 277.33 446.944 280.988 446.125 284.591C445.302 288.208 444.38 291.804 443.363 295.366C442.342 298.938 441.228 302.471 440.014 305.98C438.802 309.481 437.492 312.954 436.085 316.393C434.683 319.819 433.179 323.222 431.588 326.571C430.357 329.165 429.082 331.711 427.754 334.231C427.273 335.249 426.787 336.251 426.298 337.234C424.873 340.098 423.42 342.961 421.919 345.752C424.828 340.933 426.908 336.919 428.789 333.057C429.04 332.539 429.288 332.023 429.533 331.508C432.021 326.245 434.284 321.11 437.178 314.142C445.25 294.232 447.475 281.832 449.113 274.267C450.621 266.646 451.186 263.338 452.018 260.29C453.207 255.975 454.158 247.431 454.242 243.118C454.287 241.555 454.865 240.301 455.557 240.315C456.247 240.33 456.79 241.625 456.744 243.21C456.657 247.817 455.634 257.177 454.166 262.363C453.513 264.674 453.037 267.359 451.529 274.956C449.885 282.494 447.667 294.937 439.476 315.135C436.65 321.936 434.455 326.944 431.973 332.221C431.729 332.739 431.481 333.259 431.228 333.782C431.226 333.785 431.225 333.789 431.223 333.792C428.883 338.61 426.192 343.812 421.94 350.453C416.053 359.728 407.884 370.262 401.052 377.695C400.912 377.852 400.527 378.005 400.317 378.011C400.211 378.014 400.105 378.016 400 378.018C399.424 378.034 398.998 377.576 398.982 377C398.852 370.579 398.727 365.509 398.631 363.257C398.582 362.121 398.528 361.022 398.471 359.864C398.252 355.418 397.988 350.051 397.813 337.955C397.775 335.309 397.752 332.21 397.742 328.829C397.405 323.755 397.093 318.828 396.907 314.544C396.747 310.847 396.452 307.438 396.13 304.134C396.037 303.183 395.939 302.226 395.843 301.27C395.609 298.966 395.376 296.66 395.196 294.413C395.052 292.621 394.879 290.746 394.696 288.763C394.031 281.542 393.233 272.888 393.223 261.611C393.212 249.657 393.356 239.422 393.496 230.595C393.334 237.077 393.139 242.082 392.965 246.251C392.933 247.037 392.901 247.79 392.87 248.516C392.654 253.639 392.496 257.364 392.503 261.356C392.534 280.424 392.747 287.576 393.36 295.645C393.521 297.77 393.736 300.114 393.968 302.639C394.43 307.685 394.959 313.458 395.262 319.66C395.543 325.437 395.959 331.898 396.399 338.743C396.399 338.746 396.399 338.749 396.399 338.751C396.485 340.089 396.572 341.443 396.659 342.808C397.19 351.131 397.724 359.885 398.061 368.407C398.097 369.319 398.146 370.411 398.204 371.664C398.274 373.204 398.355 374.991 398.437 377C398.462 377.884 399.116 378.588 400 378.563C400.105 378.559 400.211 378.555 400.317 378.551C400.639 378.541 401.229 378.306 401.443 378.065C406.364 372.435 412.972 364.393 420.102 354.597C422.122 351.823 424.228 348.944 426.53 345.576C427.232 344.548 427.95 343.479 428.687 342.349C431.856 337.473 435.537 331.395 439.567 322.858C442.892 315.813 446.394 306.958 449.267 297.512C450.687 292.865 451.966 288.075 453.066 283.32C456.377 268.95 458.068 255.466 458.572 241.957C458.572 241.955 458.572 241.952 458.573 241.949C458.631 240.358 459.218 239.108 459.909 239.168C460.599 239.228 461.13 240.59 461.07 242.202C460.549 255.876 458.83 269.476 455.485 283.97C454.387 288.708 453.104 293.519 451.674 298.204C448.755 307.813 445.158 316.9 441.754 324.094C437.596 332.88 433.789 339.136 430.525 344.133C429.736 345.335 428.98 346.455 428.253 347.513C425.938 350.876 423.926 353.606 421.985 356.268C414.788 366.127 408.192 374.156 403.27 379.793C402.708 380.423 401.161 381.041 400.317 381.065C400.211 381.07 400.105 381.074 400 381.078C397.694 381.143 395.987 379.306 395.922 377C395.85 375.268 395.779 373.701 395.716 372.315C395.657 371.026 395.606 369.894 395.568 368.93C395.238 360.575 394.713 351.955 394.182 343.639C394.096 342.29 394.011 340.948 393.925 339.616C393.924 339.613 393.924 339.61 393.924 339.608C393.484 332.764 393.061 326.186 392.774 320.302C392.482 314.33 392.003 309.121 391.554 304.248C391.314 301.634 391.083 299.116 390.894 296.629C390.243 288.068 390.032 280.521 390 261.391ZM448.359 247.301C447.872 250.95 447.57 253.907 447.39 256.118C447.632 254.252 447.851 252.374 448.047 250.505C448.158 249.439 448.262 248.37 448.359 247.301ZM400.243 328.366C400.284 328.978 400.325 329.595 400.367 330.214C400.347 328.505 400.329 326.796 400.311 325.09C400.288 322.995 400.267 320.9 400.246 318.807C400.238 322.136 400.235 325.362 400.243 328.366ZM395.727 261.584C395.737 272.219 396.467 280.166 397.126 287.333C397.315 289.396 397.499 291.398 397.658 293.378C397.724 294.199 397.797 295.019 397.874 295.846C397.913 291.03 397.954 286.603 397.989 282.978C398.091 272.164 398.304 266.009 398.492 260.6C398.546 259.036 398.598 257.531 398.644 255.997C398.56 254.727 398.477 253.409 398.404 252.076C398.3 250.211 398.201 248.194 398.117 246.275C398.032 244.349 397.956 242.391 397.892 240.468C397.828 238.53 397.774 236.609 397.727 234.697C397.683 232.898 397.646 231.105 397.61 229.37C397.608 229.271 397.606 229.171 397.604 229.072C397.566 227.238 397.529 225.455 397.478 223.816C397.426 222.147 397.365 220.76 397.272 219.529C397.157 217.992 397.046 216.415 396.943 214.855C396.839 213.294 396.743 211.739 396.653 210.189C396.563 208.636 396.479 207.098 396.399 205.556C396.374 205.057 396.347 204.536 396.322 204.041C396.311 203.814 396.299 203.586 396.288 203.359C396.28 206.375 396.266 209.507 396.246 212.744C396.216 217.421 396.134 222.413 396.044 227.921C395.891 237.315 395.714 248.208 395.727 261.584ZM396.065 157.633C396.071 158.944 396.091 160.864 396.116 163.341C396.122 163.927 396.129 164.545 396.136 165.192C396.136 165.177 396.136 165.161 396.137 165.146C396.201 163.542 396.256 162.06 396.308 160.461C396.399 157.611 396.477 154.842 396.545 152.045C396.612 149.238 396.667 146.438 396.711 143.635C396.754 140.828 396.786 138.012 396.805 135.222C396.823 132.404 396.831 129.627 396.822 126.822C396.819 125.929 396.814 125.033 396.808 124.137C396.745 126.137 396.693 128.214 396.639 130.407C396.595 132.159 396.549 133.986 396.495 135.907C396.474 136.643 396.442 137.533 396.404 138.571C396.256 142.686 396.023 149.142 396.065 157.633ZM396.119 101.767C396.102 101.116 396.087 100.469 396.075 99.83C396.062 99.1517 396.05 98.4798 396.041 97.8138C396.02 97.0644 396.63 95.6425 397.132 95.085C397.893 94.2612 398.647 93.4524 399.392 92.6548C400.227 91.7621 401.053 90.8817 401.868 90.0136C402.212 89.6472 402.555 89.281 402.895 88.9184C403.464 88.311 404.028 87.7074 404.588 87.1079C402.03 89.727 399.514 92.3131 396.978 94.9384C396.449 95.5258 395.806 97.0242 395.828 97.8138C395.812 99.9014 395.8 102.003 395.794 104.135C395.794 104.213 395.794 104.29 395.794 104.368C395.904 103.481 396.013 102.614 396.119 101.767Z" fill="#B3B0A8"/>
<path d="M219.994 337.406C215.186 332.615 210.805 327.999 205.271 322.169C205.268 322.166 205.265 322.163 205.262 322.16C204.471 321.326 203.657 320.468 202.815 319.581C199.457 316.046 195.596 311.994 190.913 307.134L197.363 309.803C190.48 309.671 182.396 309.55 172.657 309.462C151.345 309.269 134.424 308.57 124.092 307.899C122.165 307.774 120.171 307.705 115.14 307.643C114.128 307.63 113.006 307.618 111.751 307.606L118.683 300.674C118.655 303.508 118.625 307.021 118.588 311.483C118.56 314.907 118.527 318.892 118.486 323.557C118.358 338.04 118.388 360.228 118.425 381.326C118.448 382.648 117.386 385.097 116.467 386.048C115.48 387.037 114.496 388.022 113.518 389.003C103.958 398.584 94.8908 407.672 87.9779 414.548C78.5636 423.913 69.3966 432.911 59.5551 442.561C55.0462 447.169 48.6281 444.446 48.5538 438C48.563 436.982 48.5724 435.958 48.5819 434.929C48.7074 421.231 48.843 406.526 48.92 389.512C48.9791 376.457 49.4869 363.774 50.0541 350.884C50.1263 349.244 50.1992 347.597 50.2726 345.948C50.7787 334.574 51.2968 322.947 51.5934 310.373C51.6619 307.473 51.7178 304.648 51.7627 301.885C51.7513 301.244 52.2667 300.056 52.7125 299.595C66.0768 286.676 77.1105 275.385 89.1601 263.054C94.5733 257.514 100.192 251.764 106.32 245.562C107.608 244.258 108.973 242.88 110.405 241.438C110.903 240.923 112.248 240.392 112.964 240.379C126.219 240.323 143.416 240.34 160.673 240.363C162.369 240.365 164.067 240.367 165.76 240.369C165.768 240.369 165.777 240.369 165.785 240.369C184.004 240.393 201.886 240.418 215.005 240.364C217.37 240.354 219.568 240.343 221.616 240.331C222.341 240.318 223.687 240.9 224.209 241.404C235.598 252.64 240.55 257.337 244.759 261.329C246.544 263.022 248.196 264.589 250.149 266.474C257.183 273.264 267.602 283.713 278.164 294.304C278.204 294.344 278.245 294.385 278.285 294.425C280.038 296.183 281.056 297.998 280.56 298.479C280.063 298.959 278.238 297.924 276.485 296.166C270.891 290.556 265.432 285.082 260.526 280.199C259.852 280.365 258.215 279.366 256.638 277.784C252.732 273.868 240.523 262.294 221.403 244.213L221.616 244.301C221.324 244.309 221.032 244.317 220.738 244.325C221.038 244.343 221.331 244.361 221.616 244.378L221.349 244.268C222.316 245.36 223.146 246.313 223.885 247.169C224.921 248.37 225.707 249.298 226.383 250.095C227.793 251.758 228.731 252.863 230.485 254.738C234.618 259.006 241.211 265.62 248.15 272.578C249.902 274.335 250.922 276.15 250.426 276.631C249.929 277.111 248.104 276.075 246.352 274.318C246.317 274.284 246.283 274.25 246.249 274.215C239.376 267.324 232.571 260.499 228.254 256.038C227.156 254.903 226.216 253.92 225.514 253.178C224.953 252.584 224.254 251.842 223.882 251.413C223.832 251.356 223.738 251.247 223.629 251.114C223.627 251.112 223.626 251.11 223.624 251.107C223.563 251.033 223.25 250.655 222.954 250.215C222.894 250.127 222.764 249.933 222.629 249.693C222.584 249.64 222.54 249.588 222.495 249.535C221.875 248.804 221.243 248.059 220.552 247.258C220.237 246.893 219.899 246.504 219.534 246.085L221.616 246.947C217.427 246.661 210.937 246.318 198.941 245.957C186.448 245.582 165.328 245.413 138.975 245.41C140.755 245.462 142.54 245.512 144.322 245.561C148.809 245.682 153.317 245.792 157.826 245.898C159.553 245.938 161.258 245.977 162.994 246.016C165.789 246.079 168.592 246.14 171.394 246.2C173.287 246.241 175.185 246.281 177.08 246.321C177.084 246.321 177.088 246.321 177.093 246.321C179.723 246.377 182.36 246.433 185.018 246.491C185.948 246.512 186.867 246.533 187.779 246.553C191.411 246.633 194.979 246.711 199.086 246.862C199.586 246.887 200.129 246.919 200.534 246.946C200.969 246.975 201.388 247.003 201.784 247.033C202.133 247.059 202.466 247.085 202.786 247.11C202.828 247.113 202.871 247.116 202.914 247.119C203.272 247.147 203.613 247.172 203.942 247.196C204.269 247.22 204.585 247.243 204.896 247.264C204.899 247.264 204.902 247.264 204.905 247.264C205.23 247.284 205.477 247.3 205.821 247.317C206.254 247.339 206.625 247.356 207.076 247.373C207.511 247.39 207.966 247.405 208.424 247.417C208.883 247.43 209.35 247.441 209.824 247.452C210.299 247.462 210.781 247.471 211.267 247.48C211.753 247.488 212.245 247.495 212.74 247.503C213.235 247.51 213.736 247.518 214.239 247.525C215.396 247.541 216.506 247.68 217.321 247.915C218.136 248.151 218.589 248.462 218.584 248.785C218.579 249.107 218.114 249.417 217.291 249.649C216.468 249.881 215.354 250.016 214.196 250.027C213.88 250.03 213.563 250.034 213.245 250.037C213.056 250.039 212.866 250.04 212.676 250.042C212.165 250.047 211.649 250.052 211.13 250.055C210.612 250.059 210.088 250.061 209.559 250.063C209.028 250.064 208.49 250.065 207.945 250.063C207.401 250.061 206.844 250.057 206.279 250.049C205.728 250.042 205.099 250.03 204.537 250.015C204.126 250.004 203.619 249.986 203.197 249.97C202.756 249.953 202.322 249.934 201.904 249.914C201.484 249.894 201.079 249.873 200.692 249.853C200.651 249.851 200.609 249.849 200.568 249.847C200.226 249.829 199.895 249.812 199.583 249.797C199.234 249.78 198.904 249.765 198.59 249.753C198.244 249.739 198.034 249.733 197.776 249.727C194.37 249.687 190.159 249.695 186.144 249.703C185.639 249.704 185.137 249.704 184.641 249.705C182.004 249.711 179.372 249.718 176.742 249.726C174.83 249.731 172.916 249.737 171 249.742C168.181 249.749 165.352 249.754 162.527 249.759C160.772 249.761 159.05 249.763 157.3 249.764C152.729 249.766 148.143 249.763 143.552 249.748C138.967 249.733 134.353 249.707 129.736 249.662C125.136 249.618 120.358 249.552 115.744 249.451C114.821 249.431 113.892 249.406 112.964 249.378L116.764 247.806C114.954 249.509 113.131 251.193 111.404 252.779C110.129 253.949 108.878 255.093 107.646 256.22C107.641 256.223 107.637 256.227 107.633 256.231C106.55 257.22 105.482 258.196 104.423 259.167C102.152 261.248 99.9303 263.302 97.7214 265.368C95.5157 267.431 93.3323 269.497 91.1462 271.592C88.9767 273.672 86.7834 275.8 84.6236 277.918C82.4528 280.047 80.3327 282.148 78.1137 284.366C75.1971 287.282 72.3149 290.192 69.3583 293.182C66.424 296.15 63.4707 299.147 60.5098 302.153C59.6432 303.032 58.7748 303.913 57.9058 304.795L59.1122 301.885C59.1141 302.126 59.1161 302.366 59.118 302.607C59.118 302.613 59.118 302.618 59.118 302.624C59.1406 305.36 59.1634 308.103 59.1852 310.849C59.2188 315.087 59.2508 319.337 59.2767 323.603C59.3026 327.868 59.3228 332.16 59.3305 336.473C59.3374 340.787 59.3332 345.218 59.2926 349.669C59.2575 353.639 59.2108 357.641 59.1644 361.554C59.1522 362.587 59.14 363.62 59.1278 364.654C59.0707 369.556 59.0252 374.303 59.0167 378.996C59.0073 383.687 59.0331 388.374 59.0875 393.104C59.1417 397.819 59.2228 402.595 59.3207 407.408C59.419 412.243 59.5323 417.015 59.6564 421.884C59.78 426.716 59.9127 431.57 60.0531 436.484C60.0674 436.984 60.0814 437.49 60.0952 438L51.3996 434.395C52.9653 432.744 54.5879 431.044 56.1397 429.424C58.058 427.421 59.9687 425.437 61.8572 423.479C62.6235 422.685 63.3869 421.895 64.1446 421.111C65.2494 419.966 66.3449 418.833 67.4219 417.715C69.2394 415.83 71.0095 413.987 72.7213 412.188C74.4323 410.391 76.0845 408.638 77.6673 406.932C79.3052 405.165 80.6427 403.697 82.227 401.924C86.1335 397.657 88.6114 395.07 91.3642 392.194C91.9063 391.628 92.4597 391.049 93.0362 390.445C96.3419 387.002 99.6623 383.58 102.951 380.216C104.226 378.912 105.494 377.619 106.762 376.329L104.69 381.326C104.664 378.421 104.644 375.524 104.63 372.605C104.608 367.914 104.603 363.19 104.612 358.485C104.621 353.787 104.645 349.097 104.684 344.394C104.723 339.696 104.778 334.9 104.845 330.296C104.884 327.635 104.935 324.808 104.988 322.182C105.026 320.288 105.066 318.421 105.105 316.591C105.121 315.843 105.137 315.1 105.153 314.364C105.207 311.827 105.256 309.361 105.294 306.979C105.329 304.821 105.354 302.726 105.366 300.674C105.43 297.062 108.14 294.224 111.751 294.288C111.965 294.29 112.178 294.291 112.391 294.292C114.651 294.301 116.862 294.294 119.074 294.27C121.368 294.243 123.272 294.208 125.706 294.144C127.292 294.101 128.846 294.059 130.395 294.016C132.714 293.952 135.016 293.886 137.335 293.818C139.651 293.75 141.938 293.681 144.237 293.608C144.976 293.585 145.756 293.56 146.497 293.536C148.787 293.462 151.051 293.385 153.313 293.304C155.571 293.223 157.808 293.139 160.035 293.049C162.272 292.959 164.471 292.865 166.714 292.763C170.526 292.59 174.175 292.51 177.371 292.456C180.604 292.402 183.626 292.373 186.567 292.345C187.118 292.339 187.669 292.334 188.22 292.329C190.592 292.307 192.926 292.286 195.224 292.26C195.94 292.252 196.653 292.244 197.363 292.236C199.031 292.265 202.167 293.504 203.326 294.703C204.83 296.169 206.323 297.619 207.822 299.069C209.81 300.992 211.822 302.93 213.811 304.831C215.819 306.75 217.744 308.58 219.826 310.544C221.885 312.488 223.991 314.446 226.3 316.592C228.588 318.719 230.987 320.952 233.405 323.225C235.821 325.495 238.265 327.813 240.678 330.126C243.097 332.444 245.511 334.781 247.882 337.097C250.265 339.425 252.623 341.75 254.961 344.071C257.294 346.386 259.696 348.787 261.936 351.041C265.563 354.691 269.169 358.33 272.778 361.977C276.368 365.605 279.967 369.247 283.556 372.882C287.139 376.511 290.725 380.145 294.304 383.774C297.885 387.405 301.464 391.036 305.038 394.663C305.829 395.465 306.619 396.267 307.41 397.069C310.193 399.893 312.975 402.716 315.747 405.528C315.766 405.547 315.785 405.566 315.804 405.586C319.371 409.204 322.875 412.757 326.417 416.34C327.718 417.656 328.968 418.919 330.239 420.202C331.512 421.486 332.762 422.745 334.026 424.014C335.29 425.285 336.55 426.547 337.791 427.787C338.942 428.936 340.067 430.056 341.202 431.18L334.634 428.462C334.779 428.461 334.925 428.461 335.071 428.46C336.671 428.453 338.26 428.44 339.995 428.427C340.153 428.426 340.312 428.425 340.47 428.424C342.369 428.409 344.529 428.4 346.537 428.406C351.855 428.426 357.038 428.435 362.314 428.435C367.593 428.434 372.861 428.423 378.173 428.408C380.247 428.402 382.331 428.395 384.415 428.388C387.658 428.378 390.912 428.368 394.177 428.36C399.548 428.347 404.93 428.341 410.348 428.349C411.896 428.351 413.447 428.355 415 428.36L408.359 444.408C405.637 441.673 402.913 438.925 400.205 436.181C396.409 432.336 392.592 428.446 388.835 424.596C384.65 420.307 380.495 416.036 376.324 411.743C372.16 407.458 367.996 403.166 363.853 398.892C359.695 394.603 355.549 390.322 351.404 386.039C347.256 381.752 343.112 377.467 338.967 373.177C336.486 370.61 334.007 368.043 331.527 365.474C330.149 364.18 328.827 362.942 327.556 361.749C318.163 352.939 311.372 346.569 302.542 338.034C301.689 337.225 300.981 336.579 300.121 335.794C299.957 335.644 299.783 335.484 299.606 335.322C298.482 334.295 297.196 333.11 295.445 331.424C291.952 328.061 286.707 322.796 280.325 315.597C278.713 313.778 278.092 312.216 278.939 312.107C279.533 312.032 280.694 312.694 281.889 313.722C279.89 311.612 277.9 309.506 275.914 307.405C275.122 306.566 274.465 305.691 274.095 304.973C274.011 304.809 273.943 304.657 273.892 304.517C270.091 300.633 272.295 295.181 277.73 295.243C278.188 295.456 278.411 295.702 278.36 295.951C278.319 296.151 278.099 296.345 277.73 296.515C273.568 296.467 271.879 300.642 274.791 303.617C275.021 303.702 275.283 303.831 275.572 304.003C276.34 304.459 277.227 305.177 278.043 306C280.208 308.182 282.365 310.357 284.526 312.529C286.689 314.703 288.844 316.864 291.008 319.029C293.171 321.194 295.335 323.355 297.509 325.522C299.674 327.68 301.844 329.841 304.021 332.004C306.21 334.181 308.361 336.315 310.547 338.483C311.857 339.782 313.182 341.097 314.484 342.387C314.969 342.868 315.443 343.337 315.917 343.806C316.304 344.19 316.693 344.576 317.094 344.973C321.309 349.148 325.566 353.36 329.787 357.534C334.028 361.727 338.266 365.915 342.505 370.101C346.746 374.29 350.985 378.474 355.226 382.659C359.466 386.842 363.703 391.021 367.95 395.208C372.181 399.379 376.43 403.566 380.672 407.741C383.952 410.971 387.207 414.171 390.468 417.375C391.787 418.601 393.091 419.816 394.376 421.017C398.118 424.512 401.902 427.974 405.631 431.384C399.196 425.113 393.967 420.135 388.989 415.397C388.321 414.761 387.658 414.131 386.997 413.501C380.251 407.077 373.753 400.851 365.22 392.271C340.95 367.868 326.891 353.705 318.205 344.805C309.522 335.906 305.91 331.962 302.717 328.104C298.206 322.652 288.854 312.775 284.029 307.937C282.277 306.18 281.258 304.364 281.754 303.883C282.251 303.403 284.076 304.438 285.829 306.196C290.923 311.304 301.06 321.975 306.43 328.464C308.822 331.354 311.699 334.55 320.251 343.314C328.803 352.078 342.733 366.11 367.05 390.56C375.276 398.831 381.528 404.823 388.202 411.18C388.856 411.803 389.516 412.43 390.181 413.063C390.185 413.067 390.189 413.071 390.193 413.075C396.326 418.912 403.003 425.268 411.866 433.98C413.007 435.102 414.171 436.245 415.352 437.405C415.709 437.754 415.499 438.25 415 438.256C387.029 438.49 352.201 438.894 343.566 439.127C341.771 439.175 340.035 439.23 338.205 439.287C337.066 439.322 335.889 439.359 334.634 439.396C334.31 439.402 333.709 439.142 333.476 438.917C328.752 434.472 322.554 428.578 311.119 417.366C308.134 414.439 304.653 410.995 300.866 407.227C294.954 401.799 289.225 396.519 284.304 391.868C280.057 387.853 276.037 384.254 272.115 380.794C270.986 379.798 269.847 378.798 268.71 377.799C265.968 375.391 263.225 372.981 260.585 370.6C258.481 368.702 256.262 366.73 253.916 364.645C245.372 357.053 235.132 347.955 222.516 335.371C211.23 324.112 201.39 314.144 192.721 305.322L197.363 307.243C195.076 307.222 192.846 307.2 190.669 307.178C193.019 307.215 195.247 307.254 197.363 307.294L192.685 305.358C197.62 310.476 201.663 314.721 205.16 318.402C206.016 319.303 206.836 320.167 207.625 320.999C213.201 326.873 217.254 331.143 221.723 335.596C243.064 356.864 251.211 364.699 260.666 373.276C263.156 375.534 265.928 377.998 268.915 380.654C274.885 385.962 281.712 392.033 288.861 398.744C295.519 404.995 303.036 411.914 311.002 419.247C311.005 419.25 311.008 419.253 311.011 419.256C312.567 420.688 314.142 422.138 315.73 423.601C321.348 428.776 327.129 434.112 332.901 439.493C333.25 439.829 334.149 440.219 334.634 440.21C340.337 440.014 346.053 439.838 351.705 439.697C353.145 439.661 354.87 439.611 356.851 439.554C368.284 439.224 388.355 438.644 412.865 439.016C413.573 439.027 414.284 439.039 415 439.053C416.296 439.038 416.842 437.747 415.915 436.842C412.63 433.433 409.237 429.828 405.435 425.788C404.102 424.371 402.718 422.9 401.271 421.366C395.024 414.743 387.406 406.726 377.112 396.201C368.617 387.514 358.189 377.003 347.36 366.088C342.027 360.711 336.596 355.236 331.251 349.833C315.106 333.513 300.374 318.49 285.67 303.494C285.667 303.491 285.664 303.488 285.661 303.485C283.924 301.714 282.96 299.929 283.51 299.502C284.06 299.075 285.914 300.165 287.651 301.935C302.363 316.94 317.049 331.918 333.141 348.183C338.405 353.504 343.792 358.936 349.105 364.292C359.986 375.26 370.56 385.918 379.134 394.685C389.603 405.389 397.361 413.553 403.693 420.267C405.219 421.884 406.651 423.406 408.01 424.851C411.609 428.674 414.702 431.962 417.687 435.067C420.411 437.725 418.806 441.517 415 441.561C414.126 441.543 413.26 441.528 412.399 441.515C388.666 441.155 369.354 441.712 357.879 442.042C355.843 442.101 354.054 442.152 352.531 442.19C346.622 442.337 340.63 442.524 334.634 442.733C333.65 442.751 331.826 441.961 331.118 441.278C325.699 436.231 320.253 431.204 314.909 426.282C313.34 424.837 311.779 423.398 310.229 421.972C310.225 421.969 310.222 421.966 310.219 421.963C302.256 414.633 294.603 407.588 287.821 401.221C280.937 394.758 274.774 389.282 269.009 384.159C265.916 381.41 262.938 378.762 260.024 376.119C249.992 367.02 241.404 358.743 219.994 337.406ZM284.981 316.981C288.984 321.422 292.38 324.906 294.958 327.452C292.832 325.227 290.713 323.005 288.594 320.78C287.388 319.513 286.184 318.247 284.981 316.981ZM302.115 404.939C302.828 405.594 303.547 406.254 304.268 406.915C302.344 405.022 300.42 403.126 298.5 401.234C296.141 398.911 293.784 396.587 291.429 394.264C295.145 397.987 298.751 401.591 302.115 404.939ZM224.255 333.569C236.153 345.436 245.555 353.794 254.033 361.329C256.475 363.499 258.842 365.604 261.168 367.702C262.133 368.572 263.101 369.437 264.081 370.305C258.723 364.9 253.802 359.927 249.775 355.857C237.755 343.709 231.024 336.686 225.109 330.514C223.398 328.729 221.753 327.013 220.07 325.266C218.591 323.908 217.058 322.494 215.516 321.058C213.358 319.049 211.033 316.867 208.827 314.784C206.614 312.693 204.371 310.561 202.177 308.46C200.015 306.39 197.88 304.333 195.76 302.28L197.363 302.943C197.293 302.944 197.222 302.946 197.151 302.947C194.308 302.991 191.475 303.028 188.734 303.064C188.577 303.066 188.42 303.068 188.263 303.07C185.365 303.108 182.546 303.145 179.957 303.196C177.32 303.248 175.129 303.309 173.183 303.402C170.754 303.518 168.262 303.629 165.798 303.732C163.331 303.835 160.874 303.931 158.425 304.021C155.971 304.111 153.541 304.195 151.104 304.275C150.316 304.301 149.492 304.327 148.711 304.352C148.351 304.363 147.991 304.375 147.632 304.386C152.398 304.395 157.348 304.408 162.463 304.429C169.852 304.458 177.741 304.54 186.443 304.63C189.945 304.666 193.578 304.704 197.363 304.74L194.491 303.551C203.085 312.299 212.821 322.163 224.255 333.569ZM115.686 337.047C115.68 334.975 115.66 331.94 115.635 328.026C115.629 327.101 115.622 326.125 115.616 325.102C115.615 325.126 115.615 325.151 115.614 325.175C115.551 327.71 115.495 330.051 115.444 332.578C115.352 337.081 115.274 341.457 115.207 345.876C115.139 350.312 115.084 354.736 115.041 359.165C114.997 363.601 114.966 368.05 114.947 372.459C114.934 375.433 114.927 378.378 114.926 381.326C114.937 381.955 114.432 383.12 113.995 383.572C112.956 384.608 111.919 385.646 110.88 386.688C109.883 387.688 108.884 388.691 107.887 389.696C109.89 387.774 111.952 385.78 114.113 383.69C114.573 383.214 115.105 381.988 115.093 381.326C115.099 380.909 115.106 380.49 115.113 380.067C115.156 377.299 115.202 374.412 115.257 371.376C115.278 370.214 115.31 368.808 115.347 367.167C115.495 360.666 115.729 350.464 115.686 337.047ZM83.3626 415.161C82.6466 415.9 81.9339 416.633 81.2276 417.356C79.2167 419.414 77.2468 421.409 75.3125 423.363C73.954 424.735 72.6091 426.089 71.2841 427.424C70.7249 427.987 70.1666 428.55 69.6135 429.107C68.6869 430.041 67.7682 430.969 66.8562 431.89C73.343 425.519 79.6729 419.279 86.2399 412.747C86.3265 412.661 86.413 412.574 86.5004 412.487C85.4303 413.399 84.3847 414.29 83.3626 415.161Z" fill="#B3B0A8"/>
<path d="M255.299 259.971C251.231 256 247.484 252.15 243.015 247.529C235.965 240.795 240.047 231.019 249.795 230.903C250.177 230.914 250.562 230.924 250.952 230.935L241.289 240.598C241.289 240.596 241.289 240.593 241.289 240.59C241.188 235.199 245.432 231.103 250.821 230.929C251.241 230.937 251.665 230.94 252.094 230.94C252.098 230.94 252.101 230.94 252.105 230.94C253.054 230.938 254.022 230.917 255.035 230.869C263.016 230.368 274.157 228.856 287.355 219.55C301.842 209.053 308.405 195.603 311.284 187.444C311.813 185.896 312.376 184.283 313.072 180.054C313.404 177.903 313.733 175.149 313.775 171.443C313.786 170.355 313.77 169.199 313.715 167.957C313.581 165.024 313.237 161.616 312.411 157.705C310.208 144.722 298.789 125.407 281.458 116.572C271.242 110.968 260.092 108.981 251.711 108.925C251.458 108.922 251.205 108.92 250.952 108.919C237.713 108.888 224.898 108.765 210.992 108.631C197.991 108.505 184.034 108.369 167.885 108.292C155.495 108.233 143.457 107.726 131.223 107.158C129.666 107.086 128.103 107.013 126.538 106.94C120.628 106.663 114.647 106.382 108.486 106.136C107.724 106.151 106.296 105.54 105.742 105.017C102.243 101.31 98.6386 97.5328 94.8713 93.6597C80.035 78.4068 67.7479 66.6928 54.1433 53.7229C51.9957 51.6755 49.815 49.5966 47.5863 47.4675C45.0763 45.0701 46.5293 41.5896 50 41.5482C54.5539 41.4943 59.2596 41.4452 64.1946 41.4103C77.2817 41.3178 96.0953 41.3365 114.986 41.3627C116.595 41.3649 118.207 41.3665 119.814 41.3688C119.822 41.3688 119.83 41.3688 119.838 41.3688C137.13 41.3934 154.102 41.4176 166.554 41.3639C186.34 41.2786 193.784 41.0772 199.993 40.9086C202.327 40.8452 204.488 40.786 207.064 40.7401C216.342 40.5748 230.347 40.6055 244.543 40.6364C244.597 40.6364 244.652 40.6364 244.706 40.6364C247.062 40.6415 248.963 41.2062 248.952 41.8974C248.941 42.5886 247.021 43.1452 244.665 43.1401C237.145 43.1237 229.807 43.1079 223.238 43.1193C222.897 43.7132 221.128 44.1628 219.007 44.1582C213.699 44.1468 197.44 44.5942 171.995 45.3252C173.738 45.4335 175.198 45.5388 176.477 45.6389C177.979 45.7565 179.129 45.8576 180.118 45.9441C182.18 46.1246 183.551 46.2437 185.986 46.3311C191.625 46.4305 200.488 46.4512 209.815 46.4715C212.17 46.4768 214.072 47.0404 214.062 47.7313C214.05 48.4224 212.13 48.9789 209.775 48.974C209.729 48.974 209.683 48.974 209.637 48.974C200.399 48.9539 191.251 48.9335 185.36 48.8275C183.862 48.8005 182.571 48.7686 181.601 48.7396C180.827 48.7164 179.859 48.6849 179.322 48.6444C179.25 48.639 179.114 48.6281 178.952 48.6114C178.949 48.611 178.946 48.6106 178.944 48.6102C178.853 48.601 178.39 48.5544 177.895 48.4527C177.796 48.4322 177.578 48.3864 177.326 48.3124C177.261 48.3067 177.196 48.301 177.131 48.2953C176.225 48.2162 175.3 48.1356 174.299 48.0572C170.39 47.7513 164.2 47.3657 151.307 46.9573C139.449 46.5818 119.404 46.4134 94.3916 46.4105C96.0814 46.4622 97.7749 46.5124 99.4671 46.5606C103.726 46.6817 108.004 46.7922 112.284 46.8975C113.923 46.9378 115.541 46.9772 117.189 47.0159C119.842 47.0786 122.502 47.1402 125.161 47.2003C126.959 47.2409 128.759 47.2809 130.558 47.3211C130.562 47.3211 130.566 47.3211 130.57 47.3211C133.067 47.3769 135.57 47.4331 138.092 47.4908C138.975 47.5123 139.847 47.5329 140.713 47.5531C144.16 47.6332 147.547 47.711 151.445 47.8619C151.919 47.8869 152.434 47.9192 152.819 47.9461C153.232 47.9745 153.629 48.0034 154.005 48.0328C154.337 48.0588 154.653 48.0852 154.956 48.1097C154.997 48.113 155.037 48.1162 155.078 48.1195C155.417 48.147 155.742 48.1724 156.053 48.1964C156.364 48.2204 156.664 48.2435 156.959 48.2635C156.962 48.2635 156.965 48.2635 156.968 48.2635C157.276 48.2841 157.51 48.2995 157.837 48.3172C158.248 48.3394 158.601 48.3565 159.028 48.3734C159.441 48.3898 159.872 48.4045 160.308 48.4173C160.743 48.4301 161.187 48.4413 161.637 48.4515C162.087 48.4617 162.545 48.4712 163.006 48.4796C163.467 48.488 163.934 48.4954 164.404 48.5028C164.874 48.5102 165.349 48.5177 165.826 48.5248C166.925 48.5413 167.979 48.68 168.752 48.9154C169.525 49.1509 169.956 49.4623 169.951 49.7846C169.946 50.1069 169.504 50.4167 168.724 50.6489C167.943 50.8809 166.885 51.0155 165.786 51.0273C165.486 51.0304 165.186 51.034 164.884 51.037C164.704 51.0389 164.523 51.0402 164.343 51.0419C163.859 51.0466 163.369 51.0518 162.876 51.0554C162.384 51.0589 161.887 51.0612 161.385 51.0627C160.881 51.0641 160.371 51.0646 159.853 51.0627C159.336 51.0607 158.808 51.0566 158.272 51.0493C157.749 51.0423 157.152 51.0302 156.618 51.0151C156.228 51.0044 155.747 50.9863 155.346 50.9699C154.928 50.9528 154.516 50.9337 154.119 50.9138C153.721 50.8938 153.336 50.8726 152.969 50.8527C152.93 50.8507 152.89 50.8486 152.851 50.8466C152.526 50.829 152.213 50.8118 151.917 50.7966C151.585 50.7795 151.272 50.765 150.974 50.7526C150.646 50.7387 150.446 50.7332 150.202 50.727C146.968 50.6867 142.972 50.695 139.161 50.7026C138.682 50.7035 138.206 50.7042 137.734 50.705C135.231 50.7109 132.733 50.7183 130.237 50.7258C128.423 50.7312 126.606 50.7368 124.788 50.7416C122.111 50.7488 119.427 50.7545 116.746 50.7587C115.08 50.7612 113.445 50.7628 111.784 50.7636C107.446 50.766 103.094 50.7626 98.7356 50.7477C94.3838 50.7328 90.0044 50.7067 85.6222 50.6623C81.2569 50.618 76.7215 50.5518 72.3423 50.4511C69.1227 50.3759 65.8219 50.2447 62.7683 50.1093C61.1272 50.0364 59.5202 49.9624 57.9366 49.8883C57.9312 49.8879 57.9258 49.8875 57.9204 49.8871C56.5305 49.8221 55.1583 49.7578 53.7958 49.6967C52.5221 49.6393 51.2583 49.5846 50 49.533L53.1698 41.7596C54.2866 42.9454 55.4002 44.121 56.5179 45.2925C58.4966 47.3665 60.479 49.4187 62.4898 51.4725C64.4856 53.5106 66.5275 55.5702 68.5609 57.5975C70.6046 59.6352 72.622 61.6243 74.7509 63.7057C77.5509 66.4413 80.3453 69.1436 83.2167 71.9154C86.0676 74.6664 88.9461 77.4347 91.8324 80.2103C92.8413 81.1803 93.8515 82.153 94.8637 83.126C94.8676 83.1298 94.8714 83.1336 94.8753 83.1374C96.7477 84.9374 98.6246 86.7417 100.503 88.5482C103.402 91.3372 106.308 94.1351 109.22 96.9479C109.976 97.6778 110.732 98.409 111.49 99.1417L108.486 97.9168C111.493 97.9002 114.513 97.8876 117.545 97.882C121.639 97.875 125.845 97.8792 130.069 97.9198C133.837 97.9549 137.636 98.0016 141.35 98.048C142.33 98.0602 143.311 98.0724 144.292 98.0846C148.945 98.1417 153.45 98.1873 157.905 98.1957C162.357 98.2051 166.805 98.1793 171.295 98.1249C175.77 98.0707 180.303 97.9896 184.871 97.8917C189.46 97.7935 193.989 97.6801 198.61 97.556C203.196 97.4324 207.804 97.2997 212.467 97.1593C215.06 97.0815 217.818 97.0101 220.424 96.9493C223.055 96.888 225.67 96.8337 228.251 96.7833C229.298 96.7628 230.34 96.7433 231.376 96.7235C232.885 96.6946 234.381 96.6664 235.854 96.6368C238.339 96.5869 240.764 96.5335 243.12 96.4708C245.474 96.4081 247.759 96.3352 249.967 96.2462C250.303 96.2326 250.631 96.2189 250.952 96.2051C252.982 96.1278 254.755 96.1055 256.857 96.1451C262.827 96.3667 266.518 97.052 270.545 97.9724C271.342 98.1604 272.151 98.3639 272.989 98.5899C277.785 99.8959 282.451 101.704 286.836 103.932C291.263 106.182 295.402 108.841 299.285 111.925C303.131 114.979 306.695 118.447 309.866 122.22C313.032 125.987 315.816 130.063 318.17 134.386C320.527 138.704 322.473 143.355 323.881 147.954C324.7 150.611 325.394 153.478 325.885 156.177C326.238 158.111 326.511 160.048 326.706 161.935C326.786 162.707 326.854 163.486 326.909 164.242C327.089 166.707 327.147 169.108 327.11 171.443C327.108 171.597 327.105 171.749 327.102 171.902C327.048 174.379 326.886 176.771 326.638 179.092C326.387 181.434 326.051 183.702 325.628 185.961C325.183 188.305 324.748 190.235 324.091 192.686C323.663 194.274 323.186 195.832 322.666 197.356C321.884 199.648 320.999 201.885 320.003 204.092C319.005 206.3 317.917 208.432 316.726 210.523C316.344 211.195 315.928 211.9 315.523 212.563C314.273 214.61 312.941 216.58 311.526 218.488C310.114 220.392 308.628 222.219 307.073 223.974C305.509 225.736 303.897 227.406 302.18 229.039C299.262 231.818 296.187 234.177 293.374 236.058C290.524 237.965 287.738 239.546 284.941 240.935C284.418 241.195 283.893 241.448 283.364 241.696C281.083 242.765 278.79 243.706 276.498 244.534C273.665 245.555 270.835 246.404 267.957 247.107C265.1 247.803 262.185 248.352 259.279 248.746C256.546 249.115 253.905 249.349 251.072 249.463L259.825 240.59C259.825 240.593 259.825 240.596 259.825 240.598C259.731 245.617 255.971 249.566 250.952 249.472C250.782 249.477 250.612 249.482 250.441 249.487C250.226 249.493 250.011 249.5 249.795 249.506L256.024 234.23C257.849 235.909 259.724 237.608 261.763 239.458C263.959 241.449 266.262 243.542 268.583 245.671C270.902 247.799 273.247 249.971 275.562 252.14C277.883 254.314 280.199 256.507 282.473 258.68C284.759 260.865 287.021 263.047 289.263 265.227C291.5 267.401 293.802 269.656 295.95 271.774C299.382 275.157 302.792 278.531 306.207 281.913L295.596 279.794C295.652 279.772 295.708 279.75 295.763 279.728C299.931 278.088 304.021 276.214 307.986 274.123C311.946 272.036 315.797 269.725 319.502 267.212C323.208 264.699 326.779 261.976 330.18 259.069C330.933 258.426 331.677 257.773 332.413 257.112C335.006 254.782 337.497 252.339 339.867 249.802C339.883 249.785 339.9 249.767 339.916 249.75C342.963 246.482 345.776 243.104 348.413 239.542C349.38 238.234 350.284 236.958 351.174 235.643C352.066 234.326 352.912 233.016 353.739 231.675C354.567 230.332 355.359 228.981 356.111 227.633C356.872 226.27 357.582 224.928 358.269 223.556C358.898 222.297 359.495 221.039 360.122 219.648C360.179 219.521 360.236 219.394 360.293 219.266C360.973 217.745 361.714 215.998 362.377 214.365C364.134 210.038 365.581 205.72 366.779 201.245C367.975 196.765 368.887 192.229 369.522 187.61C369.77 185.805 369.975 183.989 370.137 182.166C370.389 179.327 370.537 176.467 370.582 173.607C370.594 172.888 370.598 172.167 370.597 171.443C370.588 167.43 370.374 163.432 369.957 159.444C369.464 154.727 368.687 150.043 367.631 145.418C366.58 140.812 365.231 136.207 363.637 131.767C361.858 126.811 359.755 122.005 357.317 117.324C354.885 112.655 352.128 108.138 349.094 103.834C346.048 99.5135 342.718 95.3989 339.127 91.5075C335.534 87.6145 331.684 83.951 327.604 80.5404C325.165 78.5007 322.64 76.5491 320.048 74.6987C318.621 73.7956 317.235 72.9593 315.891 72.181C305.91 66.5021 298.211 63.3022 287.84 60.0454C286.84 59.7523 286.016 59.5404 285.013 59.2934C284.822 59.2467 284.62 59.197 284.413 59.1473C283.106 58.8338 281.602 58.4803 279.503 57.9981C275.332 57.0508 268.935 55.6126 260.503 54.25C258.382 53.9092 257.043 53.1685 257.555 52.523C257.916 52.0726 259.104 51.7999 260.528 51.8106C257.928 51.4964 255.291 51.2569 252.687 51.0991C251.643 51.0354 250.662 50.8659 249.961 50.6137C249.261 50.3614 248.898 50.0456 248.959 49.7235C249.02 49.4019 249.504 49.0987 250.307 48.8869C251.11 48.6753 252.164 48.5757 253.233 48.6157C256.052 48.7205 258.91 48.9194 261.708 49.2014C264.542 49.4869 267.315 49.8529 270.119 50.3122C272.909 50.77 275.681 51.3137 278.444 51.9478C281.184 52.5759 283.941 53.3016 286.645 54.1067C289.389 54.9242 292.03 55.8024 294.708 56.7904C296.31 57.3815 297.906 58.0069 299.477 58.6571C300.06 58.899 300.628 59.1382 301.194 59.3819C301.657 59.5812 302.12 59.7844 302.596 59.996C307.607 62.2234 312.52 64.7903 317.215 67.6365C321.927 70.4927 326.461 73.6521 330.769 77.0844C335.082 80.5199 339.172 84.2309 343.005 88.1938C346.837 92.1562 350.408 96.3647 353.693 100.803C356.966 105.223 359.957 109.882 362.615 114.71C364.671 118.446 366.518 122.26 368.161 126.159C368.855 127.678 369.509 129.199 370.12 130.71C371.904 135.117 373.477 139.63 374.761 144.159C372.731 136.025 370.281 129.732 367.606 123.932C367.246 123.157 366.878 122.388 366.505 121.626C362.66 113.878 358.385 106.665 351.58 97.7468C331.577 72.6408 313.643 64.5797 303.533 59.4272C293.029 54.5793 288.207 53.1473 283.867 51.3995C277.718 48.8741 265.065 46.3579 258.61 46.0323C256.272 45.8587 254.402 45.2281 254.44 44.5367C254.473 43.8474 256.441 43.3599 258.83 43.5379C265.772 43.8801 279.733 46.6643 287.13 49.8608C290.418 51.2792 294.371 52.4256 304.908 57.3073C315.034 62.5176 333.17 70.6169 353.608 96.2757C360.292 105.05 364.531 112.106 368.459 119.908C368.84 120.676 369.217 121.454 369.589 122.242C369.591 122.247 369.593 122.252 369.595 122.257C372.979 129.528 376.205 137.77 378.472 149.401C379.788 156.252 380.595 163.838 380.667 171.443C381.243 193.726 373.776 215.062 371.231 220.995C370.597 222.597 369.961 224.138 369.255 225.75C366.404 231.822 363.345 239.643 351.702 253.994C349.118 257.093 345.921 260.588 342.186 264.148C336.809 269.732 331.033 274.65 325.685 278.482C321.071 281.794 316.687 284.692 312.298 287.315C311.035 288.068 309.747 288.813 308.455 289.531C306.009 290.891 303.519 292.174 301.011 293.346C299.509 293.979 297.188 293.463 296.002 292.345C295.442 291.859 294.886 291.373 294.334 290.888C292.313 289.112 290.181 287.269 287.928 285.32C279.721 278.223 269.885 269.717 257.788 257.898C253.322 253.535 249.094 249.377 245.083 245.415C240.182 240.735 243.019 233.94 249.795 233.859C250.182 233.861 250.568 233.863 250.952 233.865L244.219 240.598C244.219 240.596 244.219 240.593 244.219 240.59C244.148 236.834 247.105 233.979 250.861 233.858C260.038 233.785 268.253 231.878 275.246 229.044C267.008 232.284 260.159 233.165 254.526 233.405C253.459 233.446 252.445 233.459 251.457 233.45C251.255 233.449 251.054 233.446 250.855 233.443C246.868 233.572 243.728 236.602 243.803 240.59C243.803 240.593 243.803 240.596 243.803 240.598L250.952 233.449C250.561 233.438 250.175 233.427 249.795 233.417C242.574 233.503 239.551 240.744 244.773 245.732C249.476 250.597 253.074 254.302 257.011 258.145C277.476 278.12 285.292 285.469 294.372 293.494C294.462 293.573 294.553 293.653 294.644 293.734C296.322 295.315 299.606 296.045 301.731 295.149C304.691 293.795 307.869 292.177 311.189 290.293C318.094 286.38 325.591 281.306 333.059 275.198C340.017 269.52 347.138 262.371 353.562 253.98C353.565 253.977 353.568 253.974 353.57 253.97C354.826 252.332 356.057 250.646 357.255 248.918C364.583 238.392 370.597 226.262 374.619 213.916C375.05 212.599 375.542 211.004 376.056 209.169C378.337 201.033 381.152 187.847 381.138 171.443C381.137 166.499 380.88 161.319 380.285 155.911C379.717 150.797 378.915 145.452 377.526 139.473C377.101 137.646 376.617 135.758 376.062 133.807C373.63 125.401 369.905 115.226 362.305 103.133C356.047 93.1705 346.718 82.0183 335.158 72.5695C329.483 67.9025 323.311 63.6278 316.924 59.931C297.605 48.7881 277.394 43.0437 256.991 41.6158C256.986 41.6155 256.982 41.6153 256.978 41.615C254.561 41.4492 252.697 40.8281 252.795 40.138C252.901 39.4512 254.962 38.96 257.432 39.1349C278.211 40.6306 298.717 46.5124 318.312 57.8417C324.714 61.5564 330.952 65.8724 336.712 70.606C348.551 80.2702 358.185 91.7982 364.596 102.068C372.445 114.626 376.254 125.22 378.71 133.929C379.293 136.03 379.79 138.038 380.214 139.931C381.563 145.988 382.283 151.092 382.82 156.052C383.393 161.415 383.639 166.548 383.64 171.443C383.65 187.592 380.999 200.607 378.728 208.948C378.203 210.874 377.694 212.563 377.237 213.988C373.286 226.353 367.373 238.586 360.012 249.369C358.821 251.119 357.593 252.835 356.335 254.509C356.332 254.513 356.33 254.516 356.328 254.52C349.868 263.129 342.558 270.614 335.377 276.552C328.087 282.579 321.255 287.328 314.552 291.3C310.948 293.43 307.379 295.322 303.758 297.009C303.397 297.178 303.035 297.344 302.673 297.508C299.733 298.747 295.19 297.737 292.868 295.549C283.581 287.314 275.235 279.429 255.299 259.971ZM264.558 52.358C269.868 53.3219 274.153 54.2441 277.346 54.9461C274.654 54.2615 271.956 53.6645 269.225 53.1506C267.664 52.8572 266.121 52.595 264.558 52.358ZM339.959 262.811C340.6 262.154 341.237 261.485 341.868 260.808C340.058 262.611 338.192 264.36 336.279 266.05C333.93 268.126 331.504 270.115 329.01 272.013C333.001 269.03 336.69 265.897 339.959 262.811ZM259.51 256.079C270.918 267.226 279.949 275.039 288.093 282.083C290.438 284.112 292.712 286.08 294.946 288.043C295.873 288.857 296.803 289.665 297.744 290.477C292.608 285.398 287.89 280.725 284.029 276.9C272.506 265.485 266.056 258.878 260.389 253.071C258.749 251.392 257.173 249.777 255.56 248.134C254.14 246.863 252.668 245.54 251.189 244.194C250.343 243.427 249.472 242.632 248.592 241.828C247.342 240.633 248.066 238.899 249.795 238.878C250.18 238.865 250.565 238.852 250.952 238.84L249.194 240.598C249.194 240.596 249.193 240.593 249.193 240.59C249.175 239.609 249.947 238.864 250.928 238.832C252.252 238.77 253.562 238.674 254.846 238.547C257.654 238.269 260.467 237.829 263.212 237.238C265.968 236.645 268.67 235.898 271.295 235.007C273.773 234.167 276.184 233.196 278.465 232.131C278.596 232.07 278.726 232.008 278.856 231.947C281.255 230.808 283.524 229.556 285.529 228.294C287.573 227.007 289.195 225.824 290.575 224.704C292.298 223.304 293.995 221.791 295.594 220.222C297.196 218.652 298.712 217.017 300.141 215.325C301.574 213.628 302.908 211.885 304.158 210.081C304.562 209.498 304.975 208.881 305.357 208.291C305.533 208.019 305.707 207.746 305.878 207.473C303.473 211.015 300.619 214.456 297.318 217.655C292.552 222.271 286.735 226.491 279.681 229.832C271.684 233.607 262.044 236.26 250.894 236.361C248.535 236.437 246.677 238.23 246.722 240.59C246.722 240.593 246.722 240.596 246.722 240.598L250.952 236.368C250.568 236.366 250.182 236.364 249.795 236.362C245.536 236.413 243.753 240.684 246.833 243.626C250.81 247.554 255.023 251.696 259.51 256.079ZM311.444 145.626C312.177 147.325 313.207 149.846 314.204 153.208C314.439 154 314.674 154.85 314.897 155.734C314.893 155.713 314.888 155.692 314.883 155.671C314.4 153.449 313.847 151.419 313.134 149.266C311.857 145.426 310.254 141.809 308.31 138.331C306.356 134.841 304.073 131.541 301.496 128.476C298.915 125.407 296.031 122.573 292.933 120.055C289.805 117.513 286.483 115.298 282.949 113.396C281.826 112.793 280.675 112.218 279.513 111.681C282.08 112.951 284.662 114.418 287.263 116.163C289.338 117.555 291.425 119.126 293.494 120.914C294.287 121.6 295.224 122.451 296.279 123.486C300.413 127.576 306.63 134.587 311.444 145.626ZM248.272 106.094C247.296 106.11 246.326 106.125 245.367 106.138C242.636 106.173 239.975 106.193 237.365 106.209C235.533 106.219 233.721 106.227 231.936 106.235C231.183 106.239 230.43 106.243 229.685 106.246C228.436 106.253 227.197 106.26 225.967 106.267C234.311 106.34 242.474 106.397 250.952 106.417C251.227 106.417 251.503 106.42 251.778 106.424C251.888 106.425 251.998 106.426 252.108 106.428C251.722 106.388 251.336 106.351 250.952 106.317C250.044 106.242 249.151 106.167 248.272 106.094Z" fill="#B3B0A8"/>
</g>
<path d="M450 249C450 302.273 428.854 351.616 394.876 387.52C393.649 388.816 391.5 387.936 391.5 386.151V110.157C391.5 109.096 391.921 108.079 392.672 107.328L446.586 53.4142C447.846 52.1543 450 53.0466 450 54.8284V249Z" fill="#111111"/>
<path d="M219.839 250C220.902 250 221.922 250.423 222.672 251.176L417.442 446.588C418.699 447.849 417.806 450 416.026 450H339.657C338.596 450 337.579 449.579 336.828 448.828L197.672 309.672C196.921 308.921 195.904 308.5 194.843 308.5H112.25C110.041 308.5 108.25 310.291 108.25 312.5V390.093C108.25 391.154 107.829 392.171 107.078 392.922L53.1642 446.836C51.9043 448.096 49.75 447.203 49.75 445.422V311.407C49.75 310.346 50.1714 309.329 50.9216 308.578L108.328 251.172C109.079 250.421 110.096 250 111.157 250H219.839Z" fill="#111111"/>
<path d="M249 50C320.681 50 380.079 107.609 380.079 179.289C380.079 232.673 347.849 278.528 301.786 298.46C300.308 299.1 298.593 298.75 297.454 297.611L253.191 253.348C251.941 252.098 252.813 249.919 254.576 249.778C291.037 246.862 320.711 216.413 320.711 179.289C320.711 140.237 290.052 108.5 251 108.5H110.157C109.096 108.5 108.079 108.079 107.328 107.328L53.4142 53.4142C52.1543 52.1543 53.0466 50 54.8284 50H249Z" fill="#111111"/>
<g style="mix-blend-mode:exclusion" opacity="0.6">
<path d="M6.5 50H493.5" stroke="#7A7569" stroke-linecap="round" stroke-linejoin="round"/>
<path d="M50 16.5V483.5" stroke="#7A7569" stroke-linecap="round" stroke-linejoin="round"/>
<path d="M450 9.5V490.5" stroke="#7A7569" stroke-linecap="round" stroke-linejoin="round"/>
<path d="M10.5 450H489.5" stroke="#7A7569" stroke-linecap="round" stroke-linejoin="round"/>
<path d="M34 34L467 467" stroke="#7A7569" stroke-linecap="round" stroke-linejoin="round"/>
<path d="M467 33L33 467" stroke="#7A7569" stroke-linecap="round" stroke-linejoin="round"/>
<path d="M250 450C360.457 450 450 360.457 450 250C450 139.543 360.457 50 250 50C139.543 50 50 139.543 50 250C50 360.457 139.543 450 250 450Z" stroke="#7A7569" stroke-linecap="round" stroke-linejoin="round"/>
<path d="M250 308.579C321.404 308.579 379.289 250.694 379.289 179.289C379.289 107.885 321.404 50 250 50C178.595 50 120.71 107.885 120.71 179.289C120.71 250.694 178.595 308.579 250 308.579Z" stroke="#7A7569" stroke-linecap="round" stroke-linejoin="round"/>
<path d="M250 250C289.053 250 320.711 218.342 320.711 179.289C320.711 140.237 289.053 108.579 250 108.579C210.948 108.579 179.29 140.237 179.29 179.289C179.29 218.342 210.948 250 250 250Z" stroke="#7A7569" stroke-linecap="round" stroke-linejoin="round"/>
<path d="M50 79.2893L450.711 480" stroke="#7A7569" stroke-linecap="round" stroke-linejoin="round"/>
<path d="M108.579 220.711L367.868 480" stroke="#7A7569" stroke-linecap="round" stroke-linejoin="round"/>
<path d="M69.5 108.579H285.5" stroke="#7A7569" stroke-linecap="round" stroke-linejoin="round"/>
<path d="M75.5 250H250.5" stroke="#7A7569" stroke-linecap="round" stroke-linejoin="round"/>
<path d="M108.579 299.5V408.5" stroke="#7A7569" stroke-linecap="round" stroke-linejoin="round"/>
<path d="M391.421 90.5V408.5" stroke="#7A7569" stroke-linecap="round" stroke-linejoin="round"/>
<path d="M116 244L44 316" stroke="#7A7569" stroke-linecap="round" stroke-linejoin="round"/>
</g>
</svg>
